<svg width="40" height="40" viewBox="0 0 40 40" fill="none" xmlns="http://www.w3.org/2000/svg">
<path d="M20 23.9994C22.2091 23.9994 24 22.2085 24 19.9994C24 17.7903 22.2091 15.9994 20 15.9994C17.7909 15.9994 16 17.7903 16 19.9994C16 22.2085 17.7909 23.9994 20 23.9994Z" stroke="#C2C2C2" stroke-width="2" stroke-linecap="round" stroke-linejoin="round"/>
<path d="M24 15.9994V20.9994C24 21.795 24.3161 22.5581 24.8787 23.1207C25.4413 23.6833 26.2044 23.9994 27 23.9994C27.7957 23.9994 28.5587 23.6833 29.1213 23.1207C29.6839 22.5581 30 21.795 30 20.9994V19.9994C29.9999 17.7424 29.2362 15.5519 27.8333 13.7839C26.4303 12.016 24.4706 10.7746 22.2726 10.2617C20.0747 9.74875 17.7679 9.99442 15.7274 10.9587C13.6868 11.9231 12.0324 13.5493 11.0333 15.5731C10.0341 17.5969 9.74898 19.8991 10.2242 22.1055C10.6994 24.3119 11.907 26.2926 13.6506 27.7256C15.3943 29.1587 17.5714 29.9597 19.8281 29.9985C22.0847 30.0373 24.2881 29.3116 26.08 27.9394" stroke="#C2C2C2" stroke-width="2" stroke-linecap="round" stroke-linejoin="round"/>
</svg>
